<svg xmlns="http://www.w3.org/2000/svg" viewBox="0 0 546.7553 546.7553"><g id="Layer_2" data-name="Layer 2"><g id="Layer_1-2" data-name="Layer 1"><path d="M226.07548,197.93985c-6.17517-24.94784,1.33186-60.26314,17.0921-80.39915,5.99947-7.66683,16.11132-16.803,30.20893-16.803,14.10066,0,24.21251,9.13851,30.21163,16.803,15.76024,20.136,23.26728,55.45131,17.09244,80.39915-6.43654,26.0004-28.55307,52.19241-40.78764,65.15046-2.84857,2.70841-5.06168,4.93913-6.51643,6.44433-1.45408-1.50453-3.66651-3.7349-6.51373-6.442C254.6289,250.13565,232.512,223.94194,226.07548,197.93985ZM197.93917,320.6816c-24.95055,6.17484-60.2606-1.3349-80.39915-17.09277-7.66463-5.99913-16.80315-16.111-16.80315-30.21164,0-14.1,9.136-24.20912,16.80315-30.20892,15.36785-12.02975,39.57748-19.25037,61.27252-19.25037a80.20454,80.20454,0,0,1,19.12663,2.15827c26.00141,6.43653,52.19478,28.55307,65.15215,40.78662,2.70773,2.84789,4.93777,5.06032,6.44229,6.5144-1.50452,1.45442-3.73456,3.66719-6.44229,6.51508C250.134,292.12616,223.94058,314.24439,197.93917,320.6816Zm122.74141,28.13327c6.17484,24.94784-1.3322,60.26585-17.09244,80.40152-5.99912,7.6648-16.111,16.80332-30.21163,16.80332-14.09761,0-24.20946-9.13581-30.20622-16.80332-15.76295-20.13567-23.27-55.45368-17.09481-80.40152,6.43552-25.99769,28.54664-52.18733,40.78121-65.1464,2.8506-2.71044,5.06473-4.94217,6.51982-6.448,1.45577,1.50621,3.67091,3.739,6.52253,6.45007C292.13462,296.63092,314.24506,322.81922,320.68058,348.81487Zm108.53513-45.226C409.08,319.3467,373.77253,326.85136,348.81656,320.6816c-25.9987-6.43619-52.19106-28.5507-65.15046-40.78594-2.70943-2.84925-4.94116-5.06337-6.44636-6.51847,1.51231-1.46118,3.75657-3.68784,6.48258-6.55638,12.96821-12.242,39.125-34.31149,65.11424-40.74464,24.95055-6.16739,60.26347,1.33186,80.39915,17.0921,7.66717,5.9998,16.80331,16.10894,16.80331,30.20892C446.019,287.47785,436.88051,297.5897,429.21571,303.58883Z" style="fill:#126aa0"/><path d="M273.37661,485.58435c-117.01039,0-212.20427-95.19647-212.20427-212.20686S156.36622,61.17062,273.37661,61.17062s212.20687,95.19647,212.20687,212.20687S390.387,485.58435,273.37661,485.58435Zm0-419.12675c-114.09584,0-206.9173,92.824-206.9173,206.91989s92.82146,206.91988,206.9173,206.91988,206.91989-92.824,206.91989-206.91988S387.47246,66.4576,273.37661,66.4576Z" style="fill:#fef8e7"/><path d="M273.76126,473.64736a.88682.88682,0,0,1-.37174.05421h0a3.96124,3.96124,0,0,1-3.96523-3.96523h0a3.92723,3.92723,0,0,1,3.96523-3.96523h.79253a3.94833,3.94833,0,0,1,3.96523,3.911h0a4.006,4.006,0,0,1-3.96523,4.01944h0A1.26768,1.26768,0,0,1,273.76126,473.64736Zm-43.40841-4.59771a3.96156,3.96156,0,0,1-3.01265-4.76034h0a3.97084,3.97084,0,0,1,4.70613-3.01264h0a3.95386,3.95386,0,0,1,3.01265,4.75776h0a3.9038,3.9038,0,0,1-3.85939,3.06685h0A4.67847,4.67847,0,0,1,230.35285,469.04965ZM312.461,465.877a3.95771,3.95771,0,0,1,3.01264-4.75776h0a3.92754,3.92754,0,0,1,4.70613,3.01265h0a3.93264,3.93264,0,0,1-3.01265,4.70613h0a2.1968,2.1968,0,0,1-.84674.10584h0A4.00621,4.00621,0,0,1,312.461,465.877ZM189.32719,455.19717a3.93717,3.93717,0,0,1-1.90259-5.287h0a3.9216,3.9216,0,0,1,5.23276-1.90516h0a3.94687,3.94687,0,0,1,1.9568,5.23534h0a3.983,3.983,0,0,1-3.6477,2.326h0A3.70965,3.70965,0,0,1,189.32719,455.19717Zm163.57859-2.27433a3.876,3.876,0,0,1,1.90259-5.23276h0a3.87882,3.87882,0,0,1,5.23534,1.90259h0a3.95245,3.95245,0,0,1-1.90259,5.287h0a4.59424,4.59424,0,0,1-1.63927.36916h0A3.85429,3.85429,0,0,1,352.90578,452.92284Zm-200.639-20.08946a3.91191,3.91191,0,0,1-.74089-5.55287h0a3.90848,3.90848,0,0,1,5.55028-.73832h0a3.95639,3.95639,0,0,1,.7409,5.55029h0a4.0066,4.0066,0,0,1-3.1727,1.53343h0A3.89188,3.89188,0,0,1,152.26675,432.83338Zm237.27868-1.2159a3.96138,3.96138,0,0,1,.73831-5.55287h0a3.95949,3.95949,0,0,1,5.55287.7409h0a3.95639,3.95639,0,0,1-.7409,5.55029h0a3.89984,3.89984,0,0,1-2.37758.79511h0A4.00663,4.00663,0,0,1,389.54543,431.61748ZM120.85987,403.06577a3.95206,3.95206,0,0,1,.42337-5.60192h0a4.00283,4.00283,0,0,1,5.6045.475h0a3.96013,3.96013,0,0,1-.475,5.6045h0a3.83039,3.83039,0,0,1-2.53764.89837h0A3.70819,3.70819,0,0,1,120.85987,403.06577Zm299.984-.10326a3.95636,3.95636,0,0,1-.475-5.6045h0a3.95125,3.95125,0,0,1,5.60191-.47759h0a4.05437,4.05437,0,0,1,.47759,5.6045h-.05422a3.9452,3.9452,0,0,1-3.01264,1.376h0A3.84392,3.84392,0,0,1,420.84389,402.96251ZM96.48765,367.32708a3.95806,3.95806,0,0,1,1.63928-5.39282h0a3.93991,3.93991,0,0,1,5.3386,1.63927h0a3.971,3.971,0,0,1-1.63669,5.39282h0a3.80321,3.80321,0,0,1-1.851.42337h0A3.90063,3.90063,0,0,1,96.48765,367.32708Zm348.78267.89837a3.97093,3.97093,0,0,1-1.63928-5.3386h0a3.93991,3.93991,0,0,1,5.33861-1.63927h0a3.95951,3.95951,0,0,1,1.69348,5.3386h0a3.98868,3.98868,0,0,1-3.54444,2.11427h0A3.84885,3.84885,0,0,1,445.27032,368.22545ZM80.36342,327.09394a3.96562,3.96562,0,0,1,2.801-4.8636h0a3.95562,3.95562,0,0,1,4.8636,2.74933h0a3.93392,3.93392,0,0,1-2.74933,4.8636h0a3.92274,3.92274,0,0,1-1.05584.15748h0A3.9968,3.9968,0,0,1,80.36342,327.09394Zm381.34866,2.00843a3.9656,3.9656,0,0,1-2.801-4.8636h0a3.99113,3.99113,0,0,1,4.91523-2.74933h0a3.93682,3.93682,0,0,1,2.74933,4.86361h0a3.94871,3.94871,0,0,1-3.80518,2.9068h0A3.65177,3.65177,0,0,1,461.71208,329.10237ZM73.383,284.42643h0a3.93364,3.93364,0,0,1,3.75354-4.17691h0a3.91883,3.91883,0,0,1,4.12529,3.75612h0A3.95292,3.95292,0,0,1,77.55988,288.18h-.26331A3.941,3.941,0,0,1,73.383,284.42643Zm395.8904,2.961a3.96256,3.96256,0,0,1-3.75354-4.17691h0a3.95068,3.95068,0,0,1,4.1227-3.75354h0a3.97878,3.97878,0,0,1,3.80776,4.17691h0v-.05163h0a4.03661,4.03661,0,0,1-3.96523,3.80517h-.21169ZM78.93584,245.72673a3.92425,3.92425,0,0,1-3.27854-4.54608h0a3.98912,3.98912,0,0,1,4.54607-3.27854h0a3.951,3.951,0,0,1,3.27854,4.54607h0a3.96555,3.96555,0,0,1-3.911,3.33018h0A2.63915,2.63915,0,0,1,78.93584,245.72673Zm384.20382-4.01686a3.92542,3.92542,0,0,1,3.27854-4.54866h0a3.91489,3.91489,0,0,1,4.54608,3.22691h0a4.00152,4.00152,0,0,1-3.27855,4.59771h0c-.21168,0-.42337.05421-.635.05421h0A3.96792,3.96792,0,0,1,463.13966,241.70987ZM89.40394,204.59522a3.98167,3.98167,0,0,1-2.22012-5.1295h0a3.97531,3.97531,0,0,1,5.18113-2.22011h0a4.0208,4.0208,0,0,1,2.22012,5.18113h0a4.00947,4.00947,0,0,1-3.70192,2.48343h0A3.76439,3.76439,0,0,1,89.40394,204.59522ZM451.879,201.68584h.05163a3.91035,3.91035,0,0,1,2.16849-5.12692h0a3.98824,3.98824,0,0,1,5.18112,2.1659h0a3.99594,3.99594,0,0,1-2.22011,5.18113h0a4.824,4.824,0,0,1-1.4818.2659h0A4.00838,4.00838,0,0,1,451.879,201.68584ZM108.5434,166.73968A3.97952,3.97952,0,0,1,107.485,161.241h0a3.88971,3.88971,0,0,1,5.49866-1.05843h0a3.97894,3.97894,0,0,1,1.05584,5.49866h0a4.04147,4.04147,0,0,1-3.276,1.74512h0A3.80151,3.80151,0,0,1,108.5434,166.73968Zm323.7728-1.6909a3.92365,3.92365,0,0,1,1.00422-5.49866h0a3.93271,3.93271,0,0,1,5.49865,1.05585h0a3.92959,3.92959,0,0,1-1.00421,5.49865h0a3.91679,3.91679,0,0,1-2.22012.68669h0A3.97014,3.97014,0,0,1,432.3162,165.04878ZM135.34741,133.802a3.94065,3.94065,0,0,1,.10585-5.6045h0a4.057,4.057,0,0,1,5.65613.15747h0a3.99,3.99,0,0,1-.15748,5.6045h0a3.96636,3.96636,0,0,1-2.74933,1.11006h0A3.77206,3.77206,0,0,1,135.34741,133.802Zm269.95309-.37174a3.87854,3.87854,0,0,1-.21169-5.55029h0a3.94694,3.94694,0,0,1,5.6045-.21169h0a3.947,3.947,0,0,1,.21169,5.6045h0a3.97477,3.97477,0,0,1-2.90938,1.27012h0A3.84776,3.84776,0,0,1,405.3005,133.43021Zm-236.752-26.06312a3.924,3.924,0,0,1,1.32174-5.447h0a3.98489,3.98489,0,0,1,5.447,1.376h0a4.0117,4.0117,0,0,1-1.32174,5.44444h0a4.261,4.261,0,0,1-2.06265.52922h0A3.8161,3.8161,0,0,1,168.54846,107.36709Zm203.60262.95a3.95858,3.95858,0,0,1-1.37595-5.44444h0a3.955,3.955,0,0,1,5.447-1.32175h0a3.95784,3.95784,0,0,1,1.37337,5.44445h0a3.97744,3.97744,0,0,1-3.3818,1.90517h0A3.59308,3.59308,0,0,1,372.15108,108.31709ZM206.61569,88.70263a3.99558,3.99558,0,0,1,2.486-5.07528h0a3.981,3.981,0,0,1,5.02108,2.486h0a3.98072,3.98072,0,0,1-2.48344,5.02107h0a3.52928,3.52928,0,0,1-1.27011.21169h0A3.92041,3.92041,0,0,1,206.61569,88.70263Zm127.78569,2.2227a3.93855,3.93855,0,0,1-2.48343-5.02366h0a3.918,3.918,0,0,1,5.02108-2.486h0a3.9628,3.9628,0,0,1,2.486,5.02366h0a4.0193,4.0193,0,0,1-3.75355,2.69511h0A5.30756,5.30756,0,0,1,334.40138,90.92533ZM247.853,78.6579a3.94441,3.94441,0,0,1,3.49022-4.3886h0a3.97334,3.97334,0,0,1,4.3886,3.49023h0a4.0203,4.0203,0,0,1-3.54186,4.3886h-.42337A3.9066,3.9066,0,0,1,247.853,78.6579Zm45.94347,3.436v-.05163a3.97055,3.97055,0,0,1-3.54186-4.33439h0a3.97163,3.97163,0,0,1,4.337-3.54444h0a3.97739,3.97739,0,0,1,3.54186,4.3886h0a3.98981,3.98981,0,0,1-3.9136,3.54186h-.42337Z" style="fill:#fef8e7"/><path d="M273.37758,63.8154c.89321,17.4634,1.27883,34.9268,1.9326,52.3902l1.1036,52.39084c.72509,34.9268.82706,69.85425.92677,104.78105-.08906,34.92744-.19426,69.85424-.91289,104.781l-1.10619,52.39084c-.65861,17.4634-1.04455,34.9268-1.94389,52.39085-.899-17.464-1.285-34.92745-1.94389-52.39085l-1.10618-52.39084c-.71864-34.9268-.82383-69.8536-.91257-104.781.09938-34.9268.20168-69.85425.92644-104.78105l1.10393-52.39084C272.09876,98.7422,272.48437,81.2788,273.37758,63.8154Z" style="fill:#fef8e7"/><path d="M482.94,273.37749c-17.4634.8932-34.92712,1.27914-52.39052,1.93227L378.159,276.414c-34.92712.72476-69.85425.82673-104.78137.92677-34.92712-.08906-69.85392-.19426-104.781-.91322L116.206,275.32138c-17.46372-.65894-34.92712-1.04488-52.39084-1.94389,17.46372-.899,34.92712-1.285,52.39084-1.9439l52.39052-1.10618c34.92712-.71831,69.85392-.82351,104.781-.91257,34.92712.09939,69.85425.20136,104.78137.92677l52.39052,1.1036C448.01287,272.099,465.47659,272.48428,482.94,273.37749Z" style="fill:#fef8e7"/><path d="M273.37661,276.96581l-1.78641-1.63927c-1.68058-1.54375-41.26058-38.19114-50.647-76.11639-6.632-26.78853,1.13329-63.29909,18.06037-84.92973,9.642-12.31905,21.52738-18.82967,34.37306-18.82967s24.73364,6.5132,34.37565,18.83226c16.92708,21.628,24.69232,58.13861,18.06038,84.92714-9.38645,37.92525-48.969,74.57264-50.64961,76.11639Zm0-176.22809c-14.09773,0-24.20958,9.136-30.20905,16.80318-15.76024,20.13592-23.26732,55.45124-17.0923,80.39914,7.89947,31.91028,39.42511,64.1226,47.30135,71.78458,7.87625-7.662,39.40447-39.8743,47.30395-71.78458,6.175-24.9479-1.33207-60.26322-17.09231-80.39914C297.58878,109.87634,287.47693,100.73772,273.37661,100.73772Z" style="fill:#fef8e7"/><path d="M273.37661,451.3068c-12.8431,0-24.72846-6.51061-34.37047-18.82967-16.92967-21.63063-24.69491-58.14378-18.063-84.93231,9.38644-37.92525,48.96644-74.57263,50.647-76.11639l1.78641-1.63927,1.78642,1.63927c1.68058,1.54376,41.26316,38.19114,50.64961,76.11639,6.63194,26.78853-1.1333,63.30168-18.063,84.92973C298.10766,444.79619,286.2223,451.3068,273.37661,451.3068Zm0-174.27645c-7.87624,7.662-39.40188,39.8743-47.30135,71.78458-6.175,24.9479,1.33206,60.2658,17.09488,80.40173,5.99689,7.66714,16.10874,16.80317,30.20647,16.80317,14.10032,0,24.21217-9.13861,30.21164-16.80317,15.76024-20.13593,23.26732-55.45383,17.09231-80.40173C312.78108,316.90465,281.25286,284.69233,273.37661,277.03035Z" style="fill:#fef8e7"/><path d="M368.25039,328.173a86.60628,86.60628,0,0,1-20.70386-2.35951c-37.92783-9.38644-74.57522-48.969-76.119-50.64961l-1.63927-1.78641,1.63927-1.78642c1.54375-1.68058,38.19114-41.26058,76.119-50.647,26.79111-6.63453,63.30168,1.13329,84.92973,18.06037,12.319,9.642,18.82967,21.52738,18.82967,34.37307s-6.5132,24.73363-18.83225,34.37564C416.05515,320.6014,391.0582,328.173,368.25039,328.173Zm-91.22091-54.79553c7.662,7.87624,39.87688,39.40446,71.78716,47.30394,24.95564,6.16985,60.26322-1.33465,80.39915-17.09231,7.66456-5.99947,16.80317-16.11132,16.80317-30.21163s-9.136-24.20959-16.80317-30.20906c-20.13593-15.76023-55.44867-23.25958-80.39915-17.0923C316.88313,233.98077,284.68888,265.49866,277.02948,273.37749Z" style="fill:#fef8e7"/><path d="M178.50542,328.173c-22.80781,0-47.80476-7.569-64.22329-20.41989-12.319-9.642-18.83225-21.53-18.83225-34.37564s6.51062-24.73105,18.82967-34.37307c21.62805-16.9245,58.1412-24.6949,84.92973-18.06037,37.92525,9.38644,74.57263,48.96644,76.11639,50.647l1.63927,1.78642-1.63927,1.78641c-1.54376,1.68058-38.19114,41.26317-76.11639,50.64961A86.60628,86.60628,0,0,1,178.50542,328.173Zm.3072-104.25505c-21.69517,0-45.90475,7.22054-61.2726,19.25046-7.66714,5.99947-16.80317,16.10874-16.80317,30.20906s9.13861,24.21216,16.80317,30.21163c20.13851,15.75766,55.44867,23.26732,80.39915,17.09231,31.91028-7.89948,64.1226-39.4277,71.78458-47.30394-7.662-7.87625-39.8743-39.40188-71.78458-47.30136A80.20713,80.20713,0,0,0,178.81262,223.918Z" style="fill:#fef8e7"/><path d="M278.54742,275.57953c-3.01523,0-4.89974-.07486-5.26116-.09035l-1.93873-.08261-.08261-1.93873c-.08519-1.95938-1.869-48.36237,15.49692-77.149,12.2571-20.327,39.185-37.80908,62.63306-40.66941,13.34651-1.61862,24.49613,1.63411,32.28719,9.42516s11.04894,18.95359,9.42258,32.282c-2.85775,23.448-20.33987,50.37855-40.66683,62.63823C326.9769,274.14678,291.81648,275.57953,278.54742,275.57953Zm-3.10558-4.26727c9.21089.1394,48.37785-.19878,72.812-14.93673,19.00263-11.46457,35.98135-37.61288,38.65323-59.53006,1.46115-11.9912-1.37853-21.943-8.21442-28.78147-6.83847-6.83847-16.79027-9.6575-28.784-8.217-21.91718,2.67446-48.06549,19.65318-59.52748,38.65581C275.64578,222.93182,275.305,262.11169,275.44184,271.31226Z" style="fill:#fef8e7"/><path d="M190.85287,391.51342c-10.4681,0-19.29177-3.34566-25.77915-9.833-7.79105-7.78847-11.04894-18.951-9.42516-32.27944,2.85775-23.45061,20.34245-50.37854,40.66941-62.63823,28.78663-17.36336,75.20253-15.57952,77.149-15.49692l1.93873.08261.08261,1.93873c.08519,1.95938,1.8716,48.36237-15.49434,77.15158-12.2571,20.32438-39.185,37.80908-62.63564,40.66683A53.96363,53.96363,0,0,1,190.85287,391.51342Zm78.068-116.08878c-12.2855,0-47.71957,1.26495-70.419,14.95738-19.00263,11.46457-35.98393,37.61288-38.65582,59.53006-1.46114,11.9912,1.38112,21.943,8.217,28.77889,6.83589,6.83847,16.798,9.67557,28.78405,8.217,21.91718-2.67189,48.06549-19.6506,59.52748-38.65324,14.73279-24.43159,15.07355-63.61146,14.93673-72.812C270.66085,275.43238,269.858,275.42464,268.9209,275.42464Z" style="fill:#fef8e7"/><path d="M355.90294,391.51342a53.96334,53.96334,0,0,1-6.50545-.40788c-23.45062-2.85775-50.37855-20.34245-62.63565-40.66683-17.36594-28.78921-15.58211-75.1922-15.49692-77.15158l.08261-1.93873,1.93873-.08261c1.95938-.08519,48.36753-1.869,77.15158,15.49692,20.32438,12.25969,37.80908,39.18762,40.66683,62.63565,1.62636,13.331-1.63153,24.49355-9.42258,32.282C375.19729,388.16776,366.371,391.51342,355.90294,391.51342Zm-80.4611-116.07071c-.13682,9.20057.20394,48.38044,14.93931,72.812,11.462,19.00264,37.6103,35.98135,59.52748,38.65324,11.986,1.45081,21.943-1.37854,28.784-8.217,6.83589-6.83589,9.67557-16.78769,8.21442-28.78147-2.67188-21.91718-19.6506-48.06549-38.65323-59.52748C323.82486,275.64407,284.64241,275.30589,275.44184,275.44271Z" style="fill:#fef8e7"/><path d="M268.20581,275.57953c-13.26648,0-48.4269-1.43275-71.88784-15.58469-20.327-12.26227-37.81166-39.1902-40.66941-62.63823-1.62378-13.331,1.63411-24.49354,9.42516-32.282,7.78847-7.79105,18.94068-11.04894,32.28719-9.42516,23.448,2.86033,50.376,20.34245,62.63306,40.66941,17.36594,28.78663,15.57953,75.18962,15.49434,77.149l-.08261,1.93873-1.93873.08261C273.10555,275.50467,271.21846,275.57953,268.20581,275.57953ZM190.88127,159.47267c-9.34,0-17.1491,2.92229-22.81814,8.59133-6.83589,6.83847-9.67815,16.79027-8.217,28.77889,2.67189,21.91718,19.6506,48.06549,38.65582,59.53264,24.44708,14.7457,63.59339,15.09162,72.80945,14.93673.13682-9.20057-.20394-48.38044-14.93673-72.80945-11.462-19.00263-37.6103-35.98135-59.52748-38.65581A49.744,49.744,0,0,0,190.88127,159.47267Z" style="fill:#fef8e7"/><path d="M293.32379,47.40268A1.20472,1.20472,0,0,0,292.975,45.138a103.36419,103.36419,0,0,0-13.31649-1.30238,1.90919,1.90919,0,0,1-1.87129-1.61475c-.75058-4.94105-3.022-20.9504-4.40957-42.22091-1.38725,21.27051-3.65868,37.27986-4.40926,42.22091a1.9097,1.9097,0,0,1-1.87128,1.61475,103.35241,103.35241,0,0,0-13.3165,1.30238,1.20471,1.20471,0,0,0-.34915,2.26464,89.70586,89.70586,0,0,1,11.18706,7.33477,1.22647,1.22647,0,0,1,.10907,1.86064l-5.52544,5.35861h28.35132l-5.52577-5.35861a1.2267,1.2267,0,0,1,.10907-1.86064A89.63373,89.63373,0,0,1,293.32379,47.40268Z" style="fill:#fef8e7"/><path d="M253.43151,499.35261a1.20473,1.20473,0,0,0,.34883,2.26465,103.36419,103.36419,0,0,0,13.31649,1.30238,1.90919,1.90919,0,0,1,1.87129,1.61475c.75058,4.94105,3.022,20.9504,4.40957,42.22091,1.38725-21.27051,3.65867-37.27986,4.40925-42.22091a1.90971,1.90971,0,0,1,1.87129-1.61475,103.35241,103.35241,0,0,0,13.3165-1.30238,1.20471,1.20471,0,0,0,.34915-2.26465,89.70359,89.70359,0,0,1-11.18706-7.33477,1.22646,1.22646,0,0,1-.10907-1.86063l5.52544-5.35861H259.20187l5.52576,5.35861a1.22668,1.22668,0,0,1-.10907,1.86063A89.63043,89.63043,0,0,1,253.43151,499.35261Z" style="fill:#fef8e7"/><path d="M499.35261,293.32379a1.20473,1.20473,0,0,0,2.26465-.34883,103.36419,103.36419,0,0,0,1.30238-13.31649,1.90919,1.90919,0,0,1,1.61475-1.87129c4.94105-.75058,20.9504-3.022,42.22091-4.40957-21.27051-1.38725-37.27986-3.65868-42.22091-4.40926a1.9097,1.9097,0,0,1-1.61475-1.87128,103.35241,103.35241,0,0,0-1.30238-13.3165,1.20471,1.20471,0,0,0-2.26465-.34915,89.70359,89.70359,0,0,1-7.33477,11.18706,1.22646,1.22646,0,0,1-1.86063.10907l-5.35861-5.52544v28.35132l5.35861-5.52577a1.22669,1.22669,0,0,1,1.86063.10907A89.63146,89.63146,0,0,1,499.35261,293.32379Z" style="fill:#fef8e7"/><path d="M47.40268,253.43151a1.20472,1.20472,0,0,0-2.26464.34883,103.36419,103.36419,0,0,0-1.30238,13.31649,1.90919,1.90919,0,0,1-1.61475,1.87129c-4.94105.75058-20.9504,3.022-42.22091,4.40957,21.27051,1.38725,37.27986,3.65867,42.22091,4.40925a1.90971,1.90971,0,0,1,1.61475,1.87129,103.35241,103.35241,0,0,0,1.30238,13.3165,1.20471,1.20471,0,0,0,2.26464.34915,89.70586,89.70586,0,0,1,7.33477-11.18706,1.22647,1.22647,0,0,1,1.86064-.10907l5.35861,5.52544V259.20187l-5.35861,5.52576a1.22669,1.22669,0,0,1-1.86064-.10907A89.63271,89.63271,0,0,1,47.40268,253.43151Z" style="fill:#fef8e7"/><path d="M119.74894,190.55939h-.00007a9.97028,9.97028,0,0,1-9.97021,9.97028,9.97027,9.97027,0,0,1,9.97021,9.97027h.00007a9.97027,9.97027,0,0,1,9.9702-9.97027A9.97027,9.97027,0,0,1,119.74894,190.55939Z" style="fill:#fef8e7"/><path d="M208.57006,133.06358H208.57a9.97027,9.97027,0,0,1-9.9702,9.97027,9.97027,9.97027,0,0,1,9.9702,9.97027h.00007a9.97027,9.97027,0,0,1,9.9702-9.97027A9.97027,9.97027,0,0,1,208.57006,133.06358Z" style="fill:#fef8e7"/><path d="M338.18524,133.06358h.00007a9.97027,9.97027,0,0,0,9.9702,9.97027,9.97027,9.97027,0,0,0-9.9702,9.97027h-.00007a9.97027,9.97027,0,0,0-9.97021-9.97027A9.97027,9.97027,0,0,0,338.18524,133.06358Z" style="fill:#fef8e7"/><path d="M208.57006,413.69172H208.57a9.97027,9.97027,0,0,0-9.9702-9.97027,9.97027,9.97027,0,0,0,9.9702-9.97027h.00007a9.97027,9.97027,0,0,0,9.9702,9.97027A9.97027,9.97027,0,0,0,208.57006,413.69172Z" style="fill:#fef8e7"/><path d="M338.18524,413.69172h.00007a9.97027,9.97027,0,0,1,9.9702-9.97027,9.97027,9.97027,0,0,1-9.9702-9.97027h-.00007a9.97027,9.97027,0,0,1-9.97021,9.97027A9.97027,9.97027,0,0,1,338.18524,413.69172Z" style="fill:#fef8e7"/><path d="M427.00636,190.55939h.00007a9.97028,9.97028,0,0,0,9.97021,9.97028,9.97027,9.97027,0,0,0-9.97021,9.97027h-.00007a9.97027,9.97027,0,0,0-9.9702-9.97027A9.97027,9.97027,0,0,0,427.00636,190.55939Z" style="fill:#fef8e7"/><path d="M119.74894,356.1959h-.00007a9.97027,9.97027,0,0,0-9.97021-9.97027,9.97027,9.97027,0,0,0,9.97021-9.97027h.00007a9.97027,9.97027,0,0,0,9.9702,9.97027A9.97027,9.97027,0,0,0,119.74894,356.1959Z" style="fill:#fef8e7"/><path d="M427.00636,356.1959h.00007a9.97027,9.97027,0,0,1,9.97021-9.97027,9.97027,9.97027,0,0,1-9.97021-9.97027h-.00007a9.97027,9.97027,0,0,1-9.9702,9.97027A9.97027,9.97027,0,0,1,427.00636,356.1959Z" style="fill:#fef8e7"/><circle cx="353.30091" cy="367.10971" r="6.74089" style="fill:#fef8e7"/><circle cx="367.76075" cy="347.18444" r="3.38369" style="fill:#fef8e7"/><circle cx="179.64559" cy="193.45439" r="6.74089" style="fill:#fef8e7"/><circle cx="199.57086" cy="178.99455" r="3.38369" style="fill:#fef8e7"/><circle cx="179.64559" cy="356.00707" r="6.74089" style="fill:#fef8e7"/><circle cx="199.57086" cy="370.46691" r="3.38369" style="fill:#fef8e7"/><circle cx="353.30091" cy="182.35175" r="6.74089" style="fill:#fef8e7"/><circle cx="367.76075" cy="202.27702" r="3.38369" style="fill:#fef8e7"/><path d="M276.0514,346.7084a131.74494,131.74494,0,0,1-6.12984,18.45858,148.26711,148.26711,0,0,1-8.43063,17.31238,127.97063,127.97063,0,0,1-10.59266,15.98935A122.77645,122.77645,0,0,1,238.111,412.64324a122.02325,122.02325,0,0,0,11.71337-14.94512,126.03837,126.03837,0,0,0,9.32383-16.44305,145.01388,145.01388,0,0,0,7.05532-17.466,127.95191,127.95191,0,0,0,4.65-18.04618Z" style="fill:#fef8e7"/><path d="M276.0514,345.74291a127.95191,127.95191,0,0,0,4.65,18.04618,145.07167,145.07167,0,0,0,7.05564,17.466,126.0363,126.0363,0,0,0,9.32352,16.44305,122.05522,122.05522,0,0,0,11.71336,14.94512,122.77645,122.77645,0,0,1-12.78728-14.17453A127.97285,127.97285,0,0,1,285.414,382.47936a148.2687,148.2687,0,0,1-8.43063-17.31238,131.74624,131.74624,0,0,1-6.12984-18.45858Z" style="fill:#fef8e7"/><path d="M201.01248,275.90158a127.94918,127.94918,0,0,0-18.04618,4.65,144.96965,144.96965,0,0,0-17.4663,7.056,125.97184,125.97184,0,0,0-16.44273,9.32319,122.03257,122.03257,0,0,0-14.94512,11.71369,122.77514,122.77514,0,0,1,14.17421-12.7876,128.0184,128.0184,0,0,1,15.98935-10.59266,148.41974,148.41974,0,0,1,17.31238-8.43063,131.734,131.734,0,0,1,18.4589-6.12984Z" style="fill:#fef8e7"/><path d="M200.047,275.90158a131.73537,131.73537,0,0,1-18.4589-6.12985,148.21551,148.21551,0,0,1-17.31238-8.43062,128.02062,128.02062,0,0,1-15.98935-10.59266,122.77065,122.77065,0,0,1-14.17421-12.787,121.96617,121.96617,0,0,0,14.94512,11.713A125.975,125.975,0,0,0,165.5,258.99837a144.96913,144.96913,0,0,0,17.4663,7.05532,127.95191,127.95191,0,0,0,18.04618,4.65Z" style="fill:#fef8e7"/><path d="M270.85349,201.01271a127.98241,127.98241,0,0,0-4.65-18.04683,145.057,145.057,0,0,0-7.05532-17.466,125.9891,125.9891,0,0,0-9.32383-16.44241A121.97449,121.97449,0,0,0,238.111,134.11238a122.76934,122.76934,0,0,1,12.78728,14.17388,128.0184,128.0184,0,0,1,10.59266,15.98935,148.3681,148.3681,0,0,1,8.43063,17.31238,131.72573,131.72573,0,0,1,6.12984,18.45922Z" style="fill:#fef8e7"/><path d="M270.85349,200.04721a131.727,131.727,0,0,1,6.12984-18.45922,148.3697,148.3697,0,0,1,8.43063-17.31238,128.02062,128.02062,0,0,1,10.59266-15.98935,122.76934,122.76934,0,0,1,12.78728-14.17388,122.00643,122.00643,0,0,0-11.71336,14.94511A125.987,125.987,0,0,0,287.757,165.4999a145.11486,145.11486,0,0,0-7.05564,17.466,127.98241,127.98241,0,0,0-4.65,18.04683Z" style="fill:#fef8e7"/><path d="M345.743,270.8534a127.96313,127.96313,0,0,0,18.04618-4.65,144.96459,144.96459,0,0,0,17.466-7.05532,126.00263,126.00263,0,0,0,16.443-9.32384,122.07774,122.07774,0,0,0,14.94512-11.713,122.77274,122.77274,0,0,1-14.17453,12.78695,127.99488,127.99488,0,0,1-15.98935,10.59266,148.18993,148.18993,0,0,1-17.31238,8.43063,131.74408,131.74408,0,0,1-18.45858,6.12984Z" style="fill:#fef8e7"/><path d="M346.7085,270.8534a131.74408,131.74408,0,0,1,18.45858,6.12984,148.39563,148.39563,0,0,1,17.31238,8.43063,127.99591,127.99591,0,0,1,15.98935,10.59265,122.77924,122.77924,0,0,1,14.17453,12.78761,122.082,122.082,0,0,0-14.94512-11.71369,126.07658,126.07658,0,0,0-16.443-9.32384,145.06977,145.06977,0,0,0-17.466-7.05532,127.96313,127.96313,0,0,0-18.04618-4.65Z" style="fill:#fef8e7"/><path d="M210.22983,230.02845a34.48231,34.48231,0,0,1-9.975-27.36421l.18845-2.22012,2.22012-.18845a34.43971,34.43971,0,0,1,27.36421,9.975l-3.73806,3.738a28.69485,28.69485,0,0,0-20.87424-8.5526,29.19276,29.19276,0,0,0,8.5526,20.87424Z" style="fill:#fef8e7"/><path d="M336.526,230.02845l-3.738-3.73806a29.19272,29.19272,0,0,0,8.5526-20.87424,28.60267,28.60267,0,0,0-20.87424,8.5526l-3.73806-3.738a34.49039,34.49039,0,0,1,27.36421-9.975l2.22012.18845.18845,2.22012A34.48231,34.48231,0,0,1,336.526,230.02845Z" style="fill:#fef8e7"/><path d="M205.627,346.62838q-1.47921,0-2.96359-.1265l-2.22012-.18845-.18845-2.22012a34.48231,34.48231,0,0,1,9.975-27.36421l3.73805,3.73806a29.19277,29.19277,0,0,0-8.5526,20.87424,28.88646,28.88646,0,0,0,20.87424-8.5526l3.73806,3.73805A34.44192,34.44192,0,0,1,205.627,346.62838Z" style="fill:#fef8e7"/><path d="M341.12885,346.62838a34.44192,34.44192,0,0,1-24.40062-10.10153l3.73806-3.73805a28.78853,28.78853,0,0,0,20.87424,8.5526,29.19273,29.19273,0,0,0-8.5526-20.87424l3.738-3.73806a34.48231,34.48231,0,0,1,9.975,27.36421l-.18845,2.22012-2.22012.18845Q342.60549,346.62966,341.12885,346.62838Z" style="fill:#fef8e7"/></g></g></svg>